<svg width="24" height="24" viewBox="0 0 24 24" fill="none" xmlns="http://www.w3.org/2000/svg">
<path d="M20.2499 5.25V21.75C20.2502 21.8877 20.2125 22.0229 20.1411 22.1406C20.0696 22.2583 19.9672 22.3541 19.8449 22.4175C19.7381 22.4722 19.6198 22.5005 19.4999 22.5C19.3469 22.4996 19.1978 22.4525 19.0724 22.365L11.9999 17.415L4.92738 22.365C4.81805 22.439 4.69112 22.4828 4.55943 22.492C4.42774 22.5012 4.29595 22.4755 4.17738 22.4175C4.05089 22.3573 3.9438 22.2628 3.86824 22.1448C3.79268 22.0269 3.75168 21.8901 3.74988 21.75V5.25C3.74988 4.25544 4.14497 3.30161 4.84823 2.59835C5.55149 1.89509 6.50532 1.5 7.49988 1.5H16.4999C17.4944 1.5 18.4483 1.89509 19.1515 2.59835C19.8548 3.30161 20.2499 4.25544 20.2499 5.25Z" fill="#1C244A"/>
</svg>
