<svg width="24" height="24" viewBox="0 0 24 24" fill="none" xmlns="http://www.w3.org/2000/svg">
<path d="M20.25 5.25V21.75C20.2503 21.8877 20.2126 22.0229 20.1412 22.1406C20.0698 22.2583 19.9673 22.3541 19.845 22.4175C19.7383 22.4722 19.6199 22.5005 19.5 22.5C19.3471 22.4996 19.1979 22.4525 19.0725 22.365L12 17.415L4.9275 22.365C4.81817 22.439 4.69124 22.4828 4.55955 22.492C4.42786 22.5012 4.29607 22.4755 4.1775 22.4175C4.05101 22.3573 3.94392 22.2628 3.86836 22.1448C3.79281 22.0269 3.7518 21.8901 3.75 21.75V5.25C3.75 4.25544 4.14509 3.30161 4.84835 2.59835C5.55161 1.89509 6.50544 1.5 7.5 1.5H16.5C17.4946 1.5 18.4484 1.89509 19.1517 2.59835C19.8549 3.30161 20.25 4.25544 20.25 5.25Z" fill="#1D244A"/>
</svg>
