<svg width="301" height="24" viewBox="0 0 301 24" fill="none" xmlns="http://www.w3.org/2000/svg">
<path d="M14.9562 12.9642L15.7609 8.95531H10.7295V6.35378C10.7295 5.25701 11.4324 4.18793 13.6858 4.18793H15.9731V0.774746C15.9731 0.774746 13.8974 0.503906 11.9128 0.503906C7.76938 0.503906 5.06103 2.42401 5.06103 5.89993V8.95531H0.455261V12.9642H5.06103V22.6556H10.7295V12.9642H14.9562Z" fill="white" fill-opacity="0.22"/>
<path d="M106.997 6.65795C107.015 6.87261 107.015 7.08731 107.015 7.30197C107.015 13.8493 101.148 21.3934 90.4257 21.3934C87.1222 21.3934 84.0535 20.5807 81.4721 19.1701C81.9415 19.216 82.3927 19.2314 82.8801 19.2314C85.6059 19.2314 88.1151 18.4494 90.1188 17.1154C87.5555 17.0694 85.4073 15.6434 84.6672 13.6807C85.0283 13.7266 85.3893 13.7573 85.7684 13.7573C86.2919 13.7573 86.8154 13.696 87.3028 13.5887C84.6311 13.1286 82.6274 11.1353 82.6274 8.72797V8.66666C83.4035 9.03466 84.3062 9.26466 85.2629 9.29529C83.6924 8.40594 82.6635 6.88794 82.6635 5.17059C82.6635 4.2506 82.9523 3.40726 83.4577 2.67125C86.3279 5.6766 90.6423 7.63925 95.4801 7.85395C95.3898 7.48595 95.3357 7.10265 95.3357 6.71931C95.3357 3.98992 97.9351 1.7666 101.166 1.7666C102.845 1.7666 104.361 2.3646 105.426 3.33061C106.744 3.11595 108.008 2.70193 109.127 2.13461C108.694 3.28464 107.773 4.25065 106.564 4.86394C107.737 4.75666 108.874 4.4806 109.921 4.0973C109.127 5.0786 108.134 5.95257 106.997 6.65795Z" fill="#EBE5DB"/>
<path d="M204.239 0H177.63C176.411 0 175.42 0.749554 175.42 1.6697V21.4889C175.42 22.4091 176.411 23.1586 177.63 23.1586H204.239C205.458 23.1586 206.456 22.4091 206.456 21.4889V1.6697C206.456 0.749554 205.458 0 204.239 0ZM184.8 19.8502H180.2V8.79821H184.807V19.8502H184.8ZM182.5 7.28876C181.025 7.28876 179.833 6.39447 179.833 5.29857C179.833 4.20267 181.025 3.30837 182.5 3.30837C183.969 3.30837 185.167 4.20267 185.167 5.29857C185.167 6.39964 183.976 7.28876 182.5 7.28876ZM202.043 19.8502H197.443V14.4741C197.443 13.1921 197.409 11.5431 195.053 11.5431C192.656 11.5431 192.289 12.9388 192.289 14.3811V19.8502H187.689V8.79821H192.102V10.3077H192.164C192.781 9.4392 194.284 8.52423 196.522 8.52423C201.177 8.52423 202.043 10.8142 202.043 13.7918V19.8502Z" fill="white" fill-opacity="0.22"/>
<path d="M286.183 5.90034C282.146 5.90034 278.89 8.43607 278.89 11.5798C278.89 14.7235 282.146 17.2592 286.183 17.2592C290.219 17.2592 293.475 14.7235 293.475 11.5798C293.475 8.43607 290.219 5.90034 286.183 5.90034ZM286.183 15.2721C283.574 15.2721 281.442 13.6163 281.442 11.5798C281.442 9.54328 283.568 7.8874 286.183 7.8874C288.798 7.8874 290.924 9.54328 290.924 11.5798C290.924 13.6163 288.791 15.2721 286.183 15.2721ZM295.474 5.66803C295.474 6.40452 294.713 6.99273 293.774 6.99273C292.828 6.99273 292.073 6.39958 292.073 5.66803C292.073 4.93647 292.834 4.34332 293.774 4.34332C294.713 4.34332 295.474 4.93647 295.474 5.66803ZM300.304 7.0125C300.196 5.23799 299.676 3.66614 298.007 2.3711C296.344 1.07605 294.326 0.67073 292.047 0.581757C289.699 0.477956 282.66 0.477956 280.312 0.581757C278.04 0.665787 276.022 1.07111 274.352 2.36615C272.683 3.6612 272.169 5.23305 272.055 7.00756C271.922 8.83644 271.922 14.3181 272.055 16.147C272.163 17.9215 272.683 19.4934 274.352 20.7884C276.022 22.0835 278.034 22.4888 280.312 22.5778C282.66 22.6816 289.699 22.6816 292.047 22.5778C294.326 22.4937 296.344 22.0884 298.007 20.7884C299.67 19.4934 300.19 17.9215 300.304 16.147C300.438 14.3181 300.438 8.84139 300.304 7.0125ZM297.271 18.1094C296.776 19.0782 295.817 19.8246 294.567 20.2151C292.695 20.7934 288.252 20.6599 286.183 20.6599C284.114 20.6599 279.665 20.7884 277.799 20.2151C276.555 19.8295 275.596 19.0831 275.095 18.1094C274.352 16.6512 274.524 13.1912 274.524 11.5798C274.524 9.96837 274.359 6.50338 275.095 5.05016C275.59 4.08135 276.548 3.33497 277.799 2.94448C279.671 2.36615 284.114 2.49961 286.183 2.49961C288.252 2.49961 292.701 2.3711 294.567 2.94448C295.811 3.33002 296.769 4.07641 297.271 5.05016C298.013 6.50832 297.842 9.96837 297.842 11.5798C297.842 13.1912 298.013 16.6561 297.271 18.1094Z" fill="white" fill-opacity="0.22"/>
</svg>
