<svg width="25" height="24" viewBox="0 0 25 24" fill="none" xmlns="http://www.w3.org/2000/svg">
<path d="M22.8015 0H2.08277C1.13342 0 0.362061 0.749554 0.362061 1.6697V21.4889C0.362061 22.4091 1.13342 23.1586 2.08277 23.1586H22.8015C23.7508 23.1586 24.5276 22.4091 24.5276 21.4889V1.6697C24.5276 0.749554 23.7508 0 22.8015 0ZM7.66566 19.8502H4.08398V8.79821H7.67105V19.8502H7.66566ZM5.87482 7.28876C4.72588 7.28876 3.79809 6.39447 3.79809 5.29857C3.79809 4.20267 4.72588 3.30837 5.87482 3.30837C7.01837 3.30837 7.95154 4.20267 7.95154 5.29857C7.95154 6.39964 7.02376 7.28876 5.87482 7.28876ZM21.0915 19.8502H17.5099V14.4741C17.5099 13.1921 17.4829 11.5431 15.6489 11.5431C13.7826 11.5431 13.4967 12.9388 13.4967 14.3811V19.8502H9.91499V8.79821H13.351V10.3077H13.3996C13.8796 9.4392 15.0502 8.52423 16.7925 8.52423C20.4173 8.52423 21.0915 10.8142 21.0915 13.7918V19.8502Z" fill="#667966"/>
</svg>
