<svg width="32" height="24" viewBox="0 0 32 24" fill="none" xmlns="http://www.w3.org/2000/svg">
<path d="M31.1011 4.04867C30.7392 2.65337 29.673 1.55448 28.3192 1.18156C25.8654 0.503906 16.0258 0.503906 16.0258 0.503906C16.0258 0.503906 6.18636 0.503906 3.73248 1.18156C2.3787 1.55454 1.31247 2.65337 0.950593 4.04867C0.293091 6.57773 0.293091 11.8544 0.293091 11.8544C0.293091 11.8544 0.293091 17.131 0.950593 19.6601C1.31247 21.0554 2.3787 22.1085 3.73248 22.4814C6.18636 23.1591 16.0258 23.1591 16.0258 23.1591C16.0258 23.1591 25.8653 23.1591 28.3192 22.4814C29.673 22.1085 30.7392 21.0554 31.1011 19.6601C31.7586 17.131 31.7586 11.8544 31.7586 11.8544C31.7586 11.8544 31.7586 6.57773 31.1011 4.04867ZM12.8078 16.6452V7.06358L21.0317 11.8545L12.8078 16.6452Z" fill="#667966"/>
</svg>
