<svg width="23" height="21" viewBox="0 0 23 21" fill="none" xmlns="http://www.w3.org/2000/svg">
<path d="M20.3919 5.65795C20.406 5.87261 20.406 6.08731 20.406 6.30197C20.406 12.8493 15.8379 20.3934 7.48882 20.3934C4.91662 20.3934 2.52718 19.5807 0.517212 18.1701C0.882672 18.216 1.23403 18.2314 1.61355 18.2314C3.73592 18.2314 5.68968 17.4494 7.24986 16.1154C5.25396 16.0694 3.58133 14.6434 3.00504 12.6807C3.28618 12.7266 3.56727 12.7573 3.86247 12.7573C4.27007 12.7573 4.67771 12.696 5.05719 12.5887C2.97696 12.1286 1.41674 10.1353 1.41674 7.72797V7.66666C2.02111 8.03466 2.72395 8.26466 3.46884 8.29529C2.246 7.40594 1.44486 5.88794 1.44486 4.17059C1.44486 3.2506 1.66971 2.40726 2.06329 1.67125C4.29815 4.6766 7.65746 6.63925 11.4243 6.85395C11.3541 6.48595 11.3119 6.10265 11.3119 5.71931C11.3119 2.98992 13.3359 0.766602 15.8519 0.766602C17.159 0.766602 18.3397 1.3646 19.169 2.33061C20.195 2.11595 21.1789 1.70193 22.0504 1.13461C21.713 2.28464 20.9962 3.25065 20.0545 3.86394C20.9681 3.75666 21.8536 3.4806 22.6688 3.0973C22.0505 4.0786 21.2774 4.95257 20.3919 5.65795Z" fill="#1C244A"/>
</svg>
